<svg width="53" height="38" viewBox="0 0 53 38" fill="none" xmlns="http://www.w3.org/2000/svg">
<path d="M45.3689 9.5H38.2817V0H5.20797C2.60932 0 0.483154 2.1375 0.483154 4.75V30.875H5.20797C5.20797 34.8175 8.37359 38 12.2952 38C16.2168 38 19.3824 34.8175 19.3824 30.875H33.5568C33.5568 34.8175 36.7225 38 40.6441 38C44.5657 38 47.7313 34.8175 47.7313 30.875H52.4561V19L45.3689 9.5ZM12.2952 34.4375C10.3344 34.4375 8.75158 32.8462 8.75158 30.875C8.75158 28.9037 10.3344 27.3125 12.2952 27.3125C14.256 27.3125 15.8388 28.9037 15.8388 30.875C15.8388 32.8462 14.256 34.4375 12.2952 34.4375ZM44.1877 13.0625L48.818 19H38.2817V13.0625H44.1877ZM40.6441 34.4375C38.6833 34.4375 37.1004 32.8462 37.1004 30.875C37.1004 28.9037 38.6833 27.3125 40.6441 27.3125C42.6049 27.3125 44.1877 28.9037 44.1877 30.875C44.1877 32.8462 42.6049 34.4375 40.6441 34.4375Z" fill="#A155DB"/>
</svg>
