<svg width="28" height="28" viewBox="0 0 28 28" fill="none" xmlns="http://www.w3.org/2000/svg">
<path d="M8.7367 22.4727C7.25555 22.4727 6.05717 23.6845 6.05717 25.1657C6.05717 26.6468 7.25555 27.8587 8.7367 27.8587C10.2178 27.8587 11.4297 26.6468 11.4297 25.1657C11.4297 23.6845 10.2178 22.4727 8.7367 22.4727ZM0.657715 0.928711V3.62171H3.35071L8.1981 13.8416L6.38033 17.1405C6.16489 17.5176 6.0437 17.9619 6.0437 18.4332C6.0437 19.9143 7.25555 21.1262 8.7367 21.1262H24.8947V18.4332H9.30223C9.11372 18.4332 8.9656 18.2851 8.9656 18.0965L9.006 17.935L10.2178 15.7402H20.2492C21.2591 15.7402 22.1478 15.1881 22.6056 14.3533L27.4261 5.61452C27.5338 5.42601 27.5877 5.19711 27.5877 4.9682C27.5877 4.22763 26.9817 3.62171 26.2412 3.62171H6.32647L5.06076 0.928711H0.657715ZM22.2017 22.4727C20.7205 22.4727 19.5221 23.6845 19.5221 25.1657C19.5221 26.6468 20.7205 27.8587 22.2017 27.8587C23.6828 27.8587 24.8947 26.6468 24.8947 25.1657C24.8947 23.6845 23.6828 22.4727 22.2017 22.4727Z" fill="white"/>
</svg>
