<svg width="106" height="22" viewBox="0 0 106 22" fill="none" xmlns="http://www.w3.org/2000/svg">
<path d="M10.6929 0L13.0936 7.38863H20.8625L14.5774 11.9551L16.9781 19.3437L10.6929 14.7773L4.40778 19.3437L6.80849 11.9551L0.523349 7.38863H8.29222L10.6929 0Z" fill="url(#paint0_linear_17_1367)"/>
<path d="M95.3071 0L97.7078 7.38863H105.477L99.1915 11.9551L101.592 19.3437L95.3071 14.7773L89.0219 19.3437L91.4226 11.9551L85.1375 7.38863H92.9064L95.3071 0Z" fill="url(#paint1_linear_17_1367)"/>
<path d="M73.9208 0L76.3215 7.38863H84.0904L77.8053 11.9551L80.206 19.3437L73.9208 14.7773L67.6357 19.3437L70.0364 11.9551L63.7513 7.38863H71.5201L73.9208 0Z" fill="url(#paint2_linear_17_1367)"/>
<path d="M53.4653 0L55.866 7.38863H63.6348L57.3497 11.9551L59.7504 19.3437L53.4653 14.7773L47.1801 19.3437L49.5808 11.9551L43.2957 7.38863H51.0646L53.4653 0Z" fill="url(#paint3_linear_17_1367)"/>
<path d="M32.0785 0L34.4793 7.38863H42.2481L35.963 11.9551L38.3637 19.3437L32.0785 14.7773L25.7934 19.3437L28.1941 11.9551L21.909 7.38863H29.6778L32.0785 0Z" fill="url(#paint4_linear_17_1367)"/>
<defs>
<linearGradient id="paint0_linear_17_1367" x1="10.6929" y1="2.60966e-06" x2="-22.7999" y2="24.9175" gradientUnits="userSpaceOnUse">
<stop offset="0.0001" stop-color="#A155DB"/>
<stop offset="0.463542" stop-color="white"/>
</linearGradient>
<linearGradient id="paint1_linear_17_1367" x1="95.3071" y1="2.60966e-06" x2="61.8143" y2="24.9175" gradientUnits="userSpaceOnUse">
<stop offset="0.0001" stop-color="#A155DB"/>
<stop offset="0.463542" stop-color="white"/>
</linearGradient>
<linearGradient id="paint2_linear_17_1367" x1="73.9208" y1="2.60966e-06" x2="40.428" y2="24.9175" gradientUnits="userSpaceOnUse">
<stop offset="0.0001" stop-color="#A155DB"/>
<stop offset="0.463542" stop-color="white"/>
</linearGradient>
<linearGradient id="paint3_linear_17_1367" x1="53.4653" y1="2.60966e-06" x2="19.9725" y2="24.9175" gradientUnits="userSpaceOnUse">
<stop offset="0.0001" stop-color="#A155DB"/>
<stop offset="0.463542" stop-color="white"/>
</linearGradient>
<linearGradient id="paint4_linear_17_1367" x1="32.0785" y1="2.60966e-06" x2="-1.41424" y2="24.9175" gradientUnits="userSpaceOnUse">
<stop offset="0.0001" stop-color="#A155DB"/>
<stop offset="0.463542" stop-color="white"/>
</linearGradient>
</defs>
</svg>
