<svg width="53" height="38" viewBox="0 0 53 38" fill="none" xmlns="http://www.w3.org/2000/svg">
<path d="M45.3688 9.5H38.2816V0H5.20791C2.60926 0 0.483093 2.1375 0.483093 4.75V30.875H5.20791C5.20791 34.8175 8.37353 38 12.2951 38C16.2167 38 19.3823 34.8175 19.3823 30.875H33.5568C33.5568 34.8175 36.7224 38 40.644 38C44.5656 38 47.7312 34.8175 47.7312 30.875H52.456V19L45.3688 9.5ZM12.2951 34.4375C10.3343 34.4375 8.75151 32.8462 8.75151 30.875C8.75151 28.9037 10.3343 27.3125 12.2951 27.3125C14.2559 27.3125 15.8387 28.9037 15.8387 30.875C15.8387 32.8462 14.2559 34.4375 12.2951 34.4375ZM44.1876 13.0625L48.8179 19H38.2816V13.0625H44.1876ZM40.644 34.4375C38.6832 34.4375 37.1004 32.8462 37.1004 30.875C37.1004 28.9037 38.6832 27.3125 40.644 27.3125C42.6048 27.3125 44.1876 28.9037 44.1876 30.875C44.1876 32.8462 42.6048 34.4375 40.644 34.4375Z" fill="#0030AD"/>
</svg>
