<svg width="43" height="40" viewBox="0 0 43 40" fill="none" xmlns="http://www.w3.org/2000/svg">
<path d="M31.175 0C27.434 0 23.8435 1.76567 21.5 4.55586C19.1565 1.76567 15.566 0 11.825 0C5.203 0 0 5.2752 0 11.9891C0 20.2289 7.31 26.9428 18.3825 37.1444L21.5 40L24.6175 37.1226C35.69 26.9428 43 20.2289 43 11.9891C43 5.2752 37.797 0 31.175 0ZM21.715 33.8965L21.5 34.1144L21.285 33.8965C11.051 24.5014 4.3 18.2888 4.3 11.9891C4.3 7.62943 7.525 4.35967 11.825 4.35967C15.136 4.35967 18.361 6.51771 19.5005 9.50409H23.521C24.639 6.51771 27.864 4.35967 31.175 4.35967C35.475 4.35967 38.7 7.62943 38.7 11.9891C38.7 18.2888 31.949 24.5014 21.715 33.8965Z" fill="white"/>
</svg>
