<svg width="43" height="37" viewBox="0 0 43 37" fill="none" xmlns="http://www.w3.org/2000/svg">
<path d="M41.0455 13.607H31.6832L23.1223 0.818757C22.7509 0.272919 22.1255 0 21.5 0C20.8745 0 20.2491 0.272919 19.8777 0.838251L11.3168 13.607H1.95455C0.879545 13.607 0 14.4842 0 15.5564C0 15.7318 0.0195454 15.9073 0.0781817 16.0827L5.04273 34.1538C5.49227 35.7914 6.99727 37 8.79545 37H34.2045C36.0027 37 37.5077 35.7914 37.9768 34.1538L42.9414 16.0827L43 15.5564C43 14.4842 42.1205 13.607 41.0455 13.607ZM21.5 5.41939L26.9727 13.607H16.0273L21.5 5.41939ZM34.2045 33.1012L8.815 33.1207L4.515 17.5058H38.5045L34.2045 33.1012ZM21.5 21.4046C19.35 21.4046 17.5909 23.1591 17.5909 25.3035C17.5909 27.4478 19.35 29.2023 21.5 29.2023C23.65 29.2023 25.4091 27.4478 25.4091 25.3035C25.4091 23.1591 23.65 21.4046 21.5 21.4046Z" fill="white"/>
</svg>
